<svg width="49" height="57" viewBox="0 0 49 57" fill="none" xmlns="http://www.w3.org/2000/svg">
<path fill-rule="evenodd" clip-rule="evenodd" d="M0 23.71C0 10.6152 10.7568 0 24.0264 0C37.2988 0 48.0557 10.6152 48.0518 23.71C48.0518 34.3174 40.3086 43.6016 30.0977 46.3271L24.0264 57L17.9541 46.3271C7.61328 43.6016 0 34.3174 0 23.71Z" fill="#10DD3D"/>
<path d="M23.5 25.8903C22.1442 25.8903 20.7849 25.9705 19.476 26.1236V20.7619L35.8317 13.6106L17.3125 6V26.4626C13.1695 27.2754 10 28.9557 10 31.4451C10 35.0937 16.7933 37 23.5 37C30.2067 37 37 35.0901 37 31.4451C37 27.8002 30.2067 25.8903 23.5 25.8903ZM19.476 9.25126L30.2392 13.6725L19.476 18.3818V9.25126ZM23.5 34.8167C16.6851 34.8167 12.1635 32.7901 12.1635 31.4488C12.1635 30.574 14.0853 29.4076 17.3125 28.7042V31.4488H19.476V28.3324C20.6983 28.1757 22.0469 28.0809 23.5 28.0809C30.3149 28.0809 34.8365 30.1075 34.8365 31.4488C34.8365 32.7901 30.3149 34.8167 23.5 34.8167Z" fill="white"/>
<path d="M36 26C37.1046 26 38 25.1046 38 24C38 22.8954 37.1046 22 36 22C34.8954 22 34 22.8954 34 24C34 25.1046 34.8954 26 36 26Z" fill="white"/>
</svg>
