<svg width="62" height="62" viewBox="0 0 62 62" fill="none" xmlns="http://www.w3.org/2000/svg">
<path d="M5.16667 62C5.16667 62 0 62 0 56.8333C0 51.6667 5.16667 36.1667 31 36.1667C56.8333 36.1667 62 51.6667 62 56.8333C62 62 56.8333 62 56.8333 62H5.16667ZM31 31C35.1109 31 39.0533 29.367 41.9602 26.4602C44.867 23.5533 46.5 19.6109 46.5 15.5C46.5 11.3891 44.867 7.44666 41.9602 4.53985C39.0533 1.63303 35.1109 0 31 0C26.8891 0 22.9467 1.63303 20.0398 4.53985C17.133 7.44666 15.5 11.3891 15.5 15.5C15.5 19.6109 17.133 23.5533 20.0398 26.4602C22.9467 29.367 26.8891 31 31 31Z" fill="black"/>
</svg>
