<svg width="49" height="57" viewBox="0 0 49 57" fill="none" xmlns="http://www.w3.org/2000/svg">
<path d="M24.026 0C10.757 0 0 10.6153 0 23.7097C0 34.3175 7.61297 43.6013 17.9542 46.3273L24.026 57L30.0978 46.3273C40.3089 43.6013 48.0521 34.3175 48.0521 23.7097C48.0559 10.6153 37.299 0 24.026 0ZM40.3089 35.6742H7.61297V13.2607H40.3127V35.6742H40.3089Z" fill="black"/>
<path d="M30.0292 19.3232H17.457V23.4235H30.0292V19.3232Z" fill="black"/>
<path d="M15.3665 19.3232H9.72949V29.6098H15.3665V19.3232Z" fill="black"/>
<path d="M30.0292 25.5127H17.457V29.613H30.0292V25.5127Z" fill="black"/>
<path d="M38.1901 15.3506H9.72949V17.2325H38.1901V15.3506Z" fill="black"/>
<path d="M38.1909 19.3232H32.125V29.6098H38.1909V19.3232Z" fill="black"/>
<path d="M38.1901 31.7002H9.72949V33.5822H38.1901V31.7002Z" fill="black"/>
</svg>
