<svg width="124" height="34" viewBox="0 0 124 34" fill="current" xmlns="http://www.w3.org/2000/svg">
<path d="M0.71582 13.0047C0.71582 18.5047 4.38192 22.2881 9.54162 22.2881C14.0903 22.2881 17.5188 19.3454 18.2656 14.8263H21.8977V30.1703C21.8977 30.976 22.7803 31.1512 24.206 31.1512C25.7336 31.1512 26.5822 30.941 26.5822 30.1353V1.19895H21.8977V10.7276H18.1637C17.2812 6.48876 13.9545 3.72124 9.54162 3.72124C4.38192 3.72124 0.71582 7.50468 0.71582 13.0047ZM13.8187 13.0047C13.8187 16.1576 12.0196 18.2595 9.54162 18.2595C7.0636 18.2595 5.2645 16.1576 5.2645 13.0047C5.2645 9.88685 7.0636 7.7499 9.54162 7.7499C12.0196 7.7499 13.8187 9.88685 13.8187 13.0047Z" fill="white"/>
<path d="M57.1463 1.19895H52.4618V30.1703C52.4618 30.976 53.3444 31.1512 54.7701 31.1512C56.2976 31.1512 57.1463 30.941 57.1463 30.1353V1.19895ZM47.1663 7.71487C47.9471 7.71487 48.0829 6.97921 48.0829 5.64799C48.0829 4.35182 47.9471 3.61615 47.1663 3.61615H32.4001V19.3454C32.4001 20.0461 33.113 21.1321 33.8258 21.9028C34.5726 22.6735 35.8286 23.5493 36.7112 23.5493H49.0673C49.848 23.5493 49.9838 22.8136 49.9838 21.4824C49.9838 20.1862 49.848 19.4505 49.0673 19.4505H37.8314C37.3561 19.4505 37.0846 19.1703 37.0846 18.6448V7.71487H47.1663Z" fill="white"/>
<path d="M61.9458 17.9091V22.0079H73.6909V30.941C73.6909 31.7467 74.5735 31.9219 75.9992 31.9219C77.5268 31.9219 78.3754 31.7117 78.3754 30.906V22.0079H90.0526C90.9691 22.0079 91.1049 21.3423 91.1049 19.976C91.1049 18.6448 90.9691 17.9091 90.0526 17.9091H61.9458ZM84.0103 15.9824C85.5379 15.9824 86.3865 15.7722 86.3865 14.9665V6.34863C86.3865 5.64799 85.6737 4.56201 84.9608 3.82634C84.1801 3.02061 82.958 2.21487 82.0754 2.21487H65.7817V6.3136H80.9552C81.4305 6.3136 81.702 6.45373 81.702 7.0843V14.9665C81.702 15.7722 82.5846 15.9824 84.0103 15.9824Z" fill="white"/>
<path d="M109.357 33.8486C114.041 33.8486 117.843 30.5556 117.843 26.1767C117.843 21.7977 114.041 18.5047 109.357 18.5047C104.672 18.5047 100.871 21.7977 100.871 26.1767C100.871 30.5556 104.672 33.8486 109.357 33.8486ZM94.0815 1.65437V5.57793H99.6146C99.2412 9.32634 95.7788 11.9187 93.131 14.1607C92.4521 14.7563 92.7576 15.2117 93.8099 16.4378C94.9641 17.804 95.3714 17.8741 96.0164 17.3837C97.7476 16.0875 100.803 13.355 102.228 10.7626C103.654 13.1448 106.2 15.562 107.795 16.7181C108.474 17.2085 108.882 17.0333 109.832 15.8773C110.918 14.5461 111.19 14.1958 110.477 13.6353C108.135 11.7786 104.74 8.80086 104.333 5.57793H109.017C109.798 5.57793 109.934 4.91233 109.934 3.58112C109.934 2.28494 109.798 1.65437 109.017 1.65437H94.0815ZM113.973 17.5238C113.973 18.3646 114.856 18.6098 116.282 18.6098C117.707 18.6098 118.59 18.3646 118.59 17.5238V10.8327H123.716V6.80405H118.59V0.848633H113.973V17.5238ZM109.357 29.9601C106.947 29.9601 105.487 28.2435 105.487 26.1767C105.487 24.1098 106.947 22.3932 109.357 22.3932C111.767 22.3932 113.227 24.1098 113.227 26.1767C113.227 28.2435 111.767 29.9601 109.357 29.9601Z" fill="white"/>
</svg>
